<svg xmlns="http://www.w3.org/2000/svg" viewBox="0 0 1064.05 867.49"><defs><style>.cls-1{fill:#c7eafb;}.cls-1,.cls-5,.cls-8{stroke:#231f20;}.cls-1,.cls-2,.cls-4,.cls-5,.cls-6,.cls-7,.cls-8{stroke-miterlimit:10;}.cls-1,.cls-2,.cls-4,.cls-5,.cls-6,.cls-7{stroke-width:4px;}.cls-2,.cls-4,.cls-5,.cls-6,.cls-7,.cls-8{fill:none;}.cls-2{stroke:#ed1c24;}.cls-3{fill:#ed1c24;}.cls-4{stroke:#a7a9ac;}.cls-6,.cls-7{stroke:#f598a4;}.cls-7{stroke-dasharray:8.97 8.97;}.cls-8{stroke-width:2px;}.cls-9{fill:#231f20;}</style></defs><g id="Layer_2" data-name="Layer 2"><g id="Blue_Fill_20_C" data-name="Blue Fill 20%C"><rect class="cls-1" x="132.38" y="412.86" width="774.34" height="55" transform="translate(-159.21 496.35) rotate(-45)"/><line class="cls-2" x1="8.13" y1="439.3" x2="481.74" y2="439.3"/><line class="cls-2" x1="481.74" y1="35.44" x2="481.74" y2="439.3"/><polygon class="cls-3" points="470.12 43.36 481.74 0 493.36 43.36 470.12 43.36"/><line class="cls-4" x1="482.4" y1="439.3" x2="560.99" y2="439.3"/><line class="cls-5" x1="559.46" y1="439.3" x2="1002.49" y2="439.3"/><line class="cls-6" x1="482.62" y1="439.77" x2="486.95" y2="442.27"/><line class="cls-7" x1="494.72" y1="446.75" x2="521.92" y2="462.44"/><line class="cls-6" x1="525.81" y1="464.68" x2="530.14" y2="467.18"/><rect class="cls-5" x="132.38" y="412.86" width="774.34" height="55" transform="translate(-159.21 496.35) rotate(-45)"/><polyline class="cls-8" points="609.55 282.87 609.55 72.7 872.12 72.7"/><polygon class="cls-9" points="615.37 278.91 609.55 300.59 603.75 278.91 615.37 278.91"/><line class="cls-2" x1="531.8" y1="467.93" x2="966.81" y2="467.93"/><polygon class="cls-3" points="958.89 479.55 1002.25 467.93 958.89 456.31 958.89 479.55"/><polygon class="cls-3" points="84.43 450.26 127.8 438.64 84.43 427.02 84.43 450.26"/><line class="cls-5" x1="755.54" y1="334.28" x2="755.54" y2="397.26"/><polygon class="cls-9" points="743.91 389.33 755.54 432.7 767.16 389.33 743.91 389.33"/><line class="cls-5" x1="755.54" y1="512.39" x2="755.54" y2="575.38"/><polygon class="cls-9" points="743.91 520.32 755.54 476.95 767.16 520.32 743.91 520.32"/><path class="cls-8" d="M349.66,537c-14.27-10.64-33.11-32.81-32.17-75.45"/><polygon class="cls-9" points="349.26 529.8 365.15 545.65 343.46 539.87 349.26 529.8"/><polygon class="cls-9" points="323.14 465.97 318.91 443.93 311.55 465.13 323.14 465.97"/><line class="cls-5" x1="205.63" y1="713.76" x2="182.84" y2="736.55"/><line class="cls-5" x1="245.92" y1="754.05" x2="223.13" y2="776.84"/><line class="cls-8" x1="250.2" y1="783.43" x2="271.86" y2="805.1"/><polygon class="cls-9" points="248.89 790.34 237.67 770.9 257.11 782.12 248.89 790.34"/><line class="cls-8" x1="177.76" y1="710.99" x2="156.09" y2="689.32"/><polygon class="cls-9" points="179.06 704.08 190.29 723.52 170.85 712.3 179.06 704.08"/></g><g id="Layer_1-2" data-name="Layer 1"><path class="cls-9" d="M260.5,498.7h4.15v20.67h2.12v3.41h-2.12v9.09H260.5v-9.09h-9.09V519Zm0,20.67V505.45l-5.58,13.92Z"/><path class="cls-9" d="M273.69,498.7h10.55v3.85h-7.15L276,510.88h.54a9,9,0,0,1,3.47.63,6.59,6.59,0,0,1,2.55,1.82,8.08,8.08,0,0,1,1.56,3,13.65,13.65,0,0,1,.54,4q0,5.6-2.43,8.79a8,8,0,0,1-6.74,3.16,12.14,12.14,0,0,1-5.27-1.38l1.12-4a8.78,8.78,0,0,0,3.85,1.2,4,4,0,0,0,3.48-2,9.79,9.79,0,0,0,1.29-5.37c0-4.26-1.83-6.38-5.48-6.38a9.55,9.55,0,0,0-2.73.4Z"/><path class="cls-9" d="M296.12,498.36a7.29,7.29,0,0,1,5.35,2.23,7.39,7.39,0,0,1,0,10.64,7.86,7.86,0,0,1-10.89,0,7.44,7.44,0,0,1,0-10.68A7.69,7.69,0,0,1,296.12,498.36Zm-.06,3.26a4.13,4.13,0,0,0-3,1.25,4.07,4.07,0,0,0-1.23,3,4.11,4.11,0,0,0,1.23,3,4.17,4.17,0,0,0,6,0,4.09,4.09,0,0,0,1.25-3,4.16,4.16,0,0,0-1.23-3A4,4,0,0,0,296.06,501.62Z"/><path class="cls-9" d="M0,321.9H4.47v33.17H0Z"/><path class="cls-9" d="M9.35,332.83h4.1v2.56A5.2,5.2,0,0,1,18,332.47a4.06,4.06,0,0,1,3.87,2.12,11.24,11.24,0,0,1,.65,4.67v15.81H18.41l0-14.87a6.89,6.89,0,0,0-.54-3.2,1.93,1.93,0,0,0-1.84-.95,2.7,2.7,0,0,0-1.2.25,1.88,1.88,0,0,0-.78.8,4.31,4.31,0,0,0-.44,1.43,14.51,14.51,0,0,0-.14,2.17v14.37H9.35Z"/><path class="cls-9" d="M36.24,333.26v4.19a2.58,2.58,0,0,0-2.06-1.05q-3.39,0-3.39,7.35c0,5.2,1.12,7.79,3.37,7.79a3.59,3.59,0,0,0,2.08-.83v3.84a6.92,6.92,0,0,1-3.3.86q-6.63,0-6.62-11.26,0-6,1.63-8.84A5.45,5.45,0,0,1,33,332.47,7,7,0,0,1,36.24,333.26Z"/><path class="cls-9" d="M41.66,323.38a2.8,2.8,0,0,1,2.75,2.77,2.79,2.79,0,1,1-5.57,0,2.64,2.64,0,0,1,.82-1.93A2.84,2.84,0,0,1,41.66,323.38Zm-1.94,9.45h4.13v22.24H39.72Z"/><path class="cls-9" d="M61.17,318.57v36.5H57.06v-2.86a7,7,0,0,1-1.76,2.51,3.7,3.7,0,0,1-2.34.69,4.24,4.24,0,0,1-4-2.82q-1.29-2.83-1.29-8.89a35,35,0,0,1,.32-5.05,12.77,12.77,0,0,1,1-3.5,4.8,4.8,0,0,1,1.69-2,4.5,4.5,0,0,1,2.45-.65,3.68,3.68,0,0,1,2.23.64,4.4,4.4,0,0,1,.88.86,7.85,7.85,0,0,1,.88,1.38V318.57Zm-9.29,25.28a22.27,22.27,0,0,0,.58,6.13,2.19,2.19,0,0,0,2.11,1.74c.92,0,1.58-.6,2-1.81a29,29,0,0,0,0-11.92c-.42-1.2-1.08-1.81-2-1.81a2.19,2.19,0,0,0-2.08,1.72A19.14,19.14,0,0,0,51.88,343.85Z"/><path class="cls-9" d="M74.42,347.57h3.83q-.45,7.85-6.45,7.84a6.58,6.58,0,0,1-3.06-.66,5.46,5.46,0,0,1-2.12-2.07,10.49,10.49,0,0,1-1.23-3.54A28,28,0,0,1,65,344q0-5.89,1.64-8.73a5.47,5.47,0,0,1,5.08-2.83q6.69,0,6.69,11.77v.52H69q0,7.13,2.83,7.13Q74.42,351.89,74.42,347.57Zm-.21-5.78a14.88,14.88,0,0,0-.8-4.6,1.95,1.95,0,0,0-3.61,0,15,15,0,0,0-.79,4.6Z"/><path class="cls-9" d="M82.05,332.83h4.1v2.56a5.21,5.21,0,0,1,4.56-2.92,4.05,4.05,0,0,1,3.86,2.12,11.24,11.24,0,0,1,.65,4.67v15.81h-4.1l0-14.87a7,7,0,0,0-.53-3.2,2,2,0,0,0-1.85-.95,2.65,2.65,0,0,0-1.19.25,1.85,1.85,0,0,0-.79.8,4.31,4.31,0,0,0-.44,1.43,14.51,14.51,0,0,0-.14,2.17v14.37h-4.1Z"/><path class="cls-9" d="M100.35,326.6h4.11v6.23h2.23v3.27h-2.23v19h-4.11v-19H98.1v-3.27h2.25Z"/><path class="cls-9" d="M20.8,371.9h4.47v29.39h7.3v3.78H20.8Z"/><path class="cls-9" d="M37.06,373.38a2.8,2.8,0,0,1,2.75,2.77,2.78,2.78,0,1,1-5.56,0,2.63,2.63,0,0,1,.81-1.93A2.86,2.86,0,0,1,37.06,373.38Zm-1.93,9.45h4.12v22.24H35.13Z"/><path class="cls-9" d="M52.49,382.83h4.12v22.95q0,4.13-.82,5.71-1.5,2.92-6,2.92a6.36,6.36,0,0,1-4.69-1.69,6.27,6.27,0,0,1-1.71-4.62l0-.69h4q0,3.54,2.64,3.54a2.06,2.06,0,0,0,2-.9,7.18,7.18,0,0,0,.54-3.41v-4.28c-.88,2-2.22,3.05-4,3.05a4.34,4.34,0,0,1-4.12-2.71Q43,400,43,394.24c0-4.07.43-7.07,1.27-9a4.25,4.25,0,0,1,4.15-2.77,3.56,3.56,0,0,1,2.23.66,7.89,7.89,0,0,1,1.81,2.37Zm.06,11.32q0-8-2.75-8c-.87,0-1.51.6-1.91,1.8a19.72,19.72,0,0,0-.6,5.74,22.09,22.09,0,0,0,.62,6.17c.43,1.22,1.15,1.83,2.15,1.83A2,2,0,0,0,52,400.08,21,21,0,0,0,52.55,394.15Z"/><path class="cls-9" d="M61.25,368.57h4.11v16.82a5.2,5.2,0,0,1,4.55-2.92,4.08,4.08,0,0,1,3.87,2.12,11.29,11.29,0,0,1,.64,4.67v15.81h-4.1l0-14.87a6.89,6.89,0,0,0-.54-3.2,2,2,0,0,0-1.85-.95,2.65,2.65,0,0,0-1.19.25,1.88,1.88,0,0,0-.78.8,4.09,4.09,0,0,0-.44,1.43,13.28,13.28,0,0,0-.14,2.17v14.37H61.25Z"/><path class="cls-9" d="M79.56,376.6h4.1v6.23h2.23v3.27H83.66v19h-4.1v-19H77.3v-3.27h2.26Z"/><path class="cls-9" d="M357.67,57.17q0,7.77-4.81,7.78A3.82,3.82,0,0,1,349.31,63c-.76-1.26-1.13-3.25-1.13-6s.37-4.69,1.12-5.95a3.82,3.82,0,0,1,3.56-1.89,4,4,0,0,1,3.64,1.92A12,12,0,0,1,357.67,57.17Zm8.53-7.82h2.73L352.48,82.52h-2.73Zm-11.45,7.82a13.33,13.33,0,0,0-.43-4c-.28-.82-.75-1.23-1.39-1.23a1.45,1.45,0,0,0-1.38,1.16,14.57,14.57,0,0,0-.38,4.06,14.61,14.61,0,0,0,.38,4.07,1.45,1.45,0,0,0,1.38,1.16c.64,0,1.11-.41,1.39-1.22A12.9,12.9,0,0,0,354.75,57.17ZM370.5,75.32q0,7.68-4.7,7.67a3.84,3.84,0,0,1-3.55-1.88q-1.14-1.87-1.14-5.9,0-7.81,4.66-7.82T370.5,75.32Zm-2.88,0a13.8,13.8,0,0,0-.42-4Q366.78,70,365.82,70c-.65,0-1.1.38-1.36,1.16a16.2,16.2,0,0,0-.36,4,14.47,14.47,0,0,0,.39,4.06,1.39,1.39,0,0,0,1.33,1.14C367,80.44,367.62,78.72,367.62,75.3Z"/><path class="cls-9" d="M298.87,99.35h5.89q3.64,0,5.43,1.74,2.26,2.25,2.26,6.89a11.91,11.91,0,0,1-1.19,5.73,5.1,5.1,0,0,1-3.41,2.67l6.1,16.14h-4.53l-6.08-16.24v16.24h-4.47ZM303.34,114a4.73,4.73,0,0,0,3.67-1.2,6.06,6.06,0,0,0,1.08-4.06,13.29,13.29,0,0,0-.23-2.64,4.66,4.66,0,0,0-.71-1.79,2.91,2.91,0,0,0-1.24-1,4.78,4.78,0,0,0-1.82-.32h-.75Z"/><path class="cls-9" d="M325.15,125H329q-.45,7.85-6.44,7.84a6.65,6.65,0,0,1-3.07-.66,5.37,5.37,0,0,1-2.11-2.07,10.71,10.71,0,0,1-1.24-3.54,29,29,0,0,1-.39-5.11c0-3.93.54-6.84,1.64-8.73a5.47,5.47,0,0,1,5.08-2.83q6.68,0,6.68,11.77v.52h-9.39q0,7.12,2.84,7.13Q325.15,129.34,325.15,125Zm-.22-5.78a15,15,0,0,0-.79-4.6,1.89,1.89,0,0,0-1.81-1.22,1.85,1.85,0,0,0-1.8,1.22,15.2,15.2,0,0,0-.8,4.6Z"/><path class="cls-9" d="M331.21,110.28h2.06v-7.75q0-3.81,1.12-5.37c.74-1,2-1.57,3.88-1.57a8.23,8.23,0,0,1,2.8.58v4.34a3.75,3.75,0,0,0-1.74-.54,1.72,1.72,0,0,0-1.5.62,3.83,3.83,0,0,0-.44,2.11l0,1.67v5.91h3.48v3.27h-3.48v19h-4.1v-19h-2.06Z"/><path class="cls-9" d="M343.82,96h4.1v36.5h-4.1Z"/><path class="cls-9" d="M361.18,125H365q-.45,7.85-6.44,7.84a6.65,6.65,0,0,1-3.07-.66,5.37,5.37,0,0,1-2.11-2.07,10.71,10.71,0,0,1-1.24-3.54,29,29,0,0,1-.39-5.11c0-3.93.54-6.84,1.64-8.73a5.46,5.46,0,0,1,5.08-2.83q6.67,0,6.68,11.77v.52h-9.39q0,7.12,2.84,7.13Q361.18,129.34,361.18,125Zm-.22-5.78a15.3,15.3,0,0,0-.79-4.6,1.89,1.89,0,0,0-1.81-1.22,1.85,1.85,0,0,0-1.8,1.22,14.88,14.88,0,0,0-.8,4.6Z"/><path class="cls-9" d="M377.89,110.71v4.19a2.58,2.58,0,0,0-2.06-1.05c-2.26,0-3.4,2.45-3.4,7.35q0,7.8,3.38,7.8a3.61,3.61,0,0,0,2.08-.84V132a7,7,0,0,1-3.31.86q-6.61,0-6.61-11.25,0-6,1.63-8.85a5.45,5.45,0,0,1,5.07-2.84A7,7,0,0,1,377.89,110.71Z"/><path class="cls-9" d="M381.87,104.05H386v6.23h2.23v3.27H386v19h-4.1v-19h-2.26v-3.27h2.26Z"/><path class="cls-9" d="M399.7,125h3.82q-.45,7.85-6.44,7.84a6.58,6.58,0,0,1-3.06-.66,5.32,5.32,0,0,1-2.12-2.07,10.71,10.71,0,0,1-1.24-3.54,29,29,0,0,1-.39-5.11c0-3.93.54-6.84,1.64-8.73a5.47,5.47,0,0,1,5.08-2.83q6.69,0,6.68,11.77v.52h-9.39q0,7.12,2.84,7.13Q399.7,129.34,399.7,125Zm-.22-5.78a15,15,0,0,0-.79-4.6,1.88,1.88,0,0,0-1.81-1.22,1.85,1.85,0,0,0-1.8,1.22,15.2,15.2,0,0,0-.8,4.6Z"/><path class="cls-9" d="M420,96v36.5h-4.1v-2.86a7.29,7.29,0,0,1-1.76,2.52,3.76,3.76,0,0,1-2.34.68,4.24,4.24,0,0,1-4-2.82q-1.29-2.83-1.29-8.89a33.43,33.43,0,0,1,.32-5,12.41,12.41,0,0,1,1-3.51,4.78,4.78,0,0,1,1.68-2,4.55,4.55,0,0,1,2.45-.65,3.69,3.69,0,0,1,2.24.64,4.68,4.68,0,0,1,.88.86,8.47,8.47,0,0,1,.88,1.38V96Zm-9.28,25.28a21.88,21.88,0,0,0,.58,6.13,2.18,2.18,0,0,0,2.11,1.74c.91,0,1.58-.6,2-1.81a20.67,20.67,0,0,0,.63-6,20.78,20.78,0,0,0-.63-6c-.41-1.2-1.08-1.81-2-1.81a2.2,2.2,0,0,0-2.09,1.72A19.55,19.55,0,0,0,410.74,121.3Z"/><path class="cls-9" d="M882.28,325.8q0,7.77-4.81,7.77a3.84,3.84,0,0,1-3.56-1.9c-.75-1.27-1.12-3.25-1.12-6a12.17,12.17,0,0,1,1.11-5.95,3.85,3.85,0,0,1,3.57-1.89,4,4,0,0,1,3.64,1.92Q882.28,321.71,882.28,325.8Zm8.53-7.83h2.73l-16.46,33.18h-2.73Zm-11.45,7.83a13.28,13.28,0,0,0-.43-4c-.29-.82-.75-1.23-1.4-1.23s-1.1.39-1.37,1.16a21.33,21.33,0,0,0,0,8.12c.27.78.73,1.16,1.37,1.16s1.11-.4,1.4-1.21A12.9,12.9,0,0,0,879.36,325.8ZM895.11,344q0,7.67-4.71,7.67a3.85,3.85,0,0,1-3.54-1.88q-1.14-1.87-1.14-5.9,0-7.81,4.66-7.82T895.11,344Zm-2.88,0a13.75,13.75,0,0,0-.42-4c-.28-.82-.74-1.24-1.39-1.24s-1.09.39-1.35,1.16a16.31,16.31,0,0,0-.36,4,14.48,14.48,0,0,0,.38,4.06c.26.76.7,1.14,1.33,1.14Q892.24,349.06,892.23,343.93Z"/><path class="cls-9" d="M802.85,368H817.4v3.92h-5v29.26H808V371.89h-5.16Z"/><path class="cls-9" d="M818.45,378.91h4.11v2.77a7.8,7.8,0,0,1,2.08-2.47,5.48,5.48,0,0,1,2.73-.82v4.3a5.46,5.46,0,0,0-.73-.06,3.89,3.89,0,0,0-3.16,1.14c-.62.74-.92,2-.92,3.91v13.47h-4.11Z"/><path class="cls-9" d="M843.16,378.91v22.24h-4.1v-2.86a7,7,0,0,1-1.77,2.51,3.64,3.64,0,0,1-2.32.69,4.25,4.25,0,0,1-4.06-2.84q-1.29-2.83-1.29-8.89,0-5.77,1.29-8.5a4.26,4.26,0,0,1,4.06-2.71q2.53,0,4.09,2.87v-2.51Zm-9.28,11a22,22,0,0,0,.58,6.13,2.17,2.17,0,0,0,2.1,1.74c.92,0,1.59-.61,2-1.81a29,29,0,0,0,0-11.92c-.41-1.21-1.08-1.81-2-1.81a2.19,2.19,0,0,0-2.08,1.72A19.51,19.51,0,0,0,833.88,389.93Z"/><path class="cls-9" d="M847.82,378.91h4.1v2.56a5.22,5.22,0,0,1,4.56-2.92,4.06,4.06,0,0,1,3.87,2.12,11.23,11.23,0,0,1,.64,4.66v15.82h-4.1l0-14.87a6.89,6.89,0,0,0-.54-3.2,2,2,0,0,0-1.85-.95,2.65,2.65,0,0,0-1.19.25,2,2,0,0,0-.79.8,4.58,4.58,0,0,0-.44,1.42,14.6,14.6,0,0,0-.14,2.17v14.38h-4.1Z"/><path class="cls-9" d="M874.23,379.36v3.85a5.22,5.22,0,0,0-3.16-1.12,2.63,2.63,0,0,0-1,.19,2.74,2.74,0,0,0-.83.53,2.47,2.47,0,0,0-.56.79,2.36,2.36,0,0,0-.2,1q0,1.59,2.88,3.78a22.57,22.57,0,0,1,1.93,1.68,7.87,7.87,0,0,1,1.18,1.46,6.37,6.37,0,0,1,.84,3.42,6.62,6.62,0,0,1-1.74,4.79,6.12,6.12,0,0,1-4.62,1.78,7.21,7.21,0,0,1-3.61-1.05v-4a5.73,5.73,0,0,0,3.37,1.34c1.88,0,2.82-.93,2.82-2.78a3,3,0,0,0-.52-1.78,5.16,5.16,0,0,0-.75-.85c-.34-.32-.77-.68-1.27-1.08a16.63,16.63,0,0,1-3.52-3.4,6.21,6.21,0,0,1-.9-3.41,6.12,6.12,0,0,1,1.65-4.41,5.87,5.87,0,0,1,4.36-1.7A7.7,7.7,0,0,1,874.23,379.36Z"/><path class="cls-9" d="M878.57,378.91h4.1v2.75c1.13-2.08,2.63-3.11,4.51-3.11a4.13,4.13,0,0,1,4.17,3.11,5.05,5.05,0,0,1,4.64-3.11,4.88,4.88,0,0,1,3.58,1.23,5,5,0,0,1,1.23,3.64v17.73h-4.12V386.52a7.9,7.9,0,0,0-.48-3.38,1.79,1.79,0,0,0-1.76-.88,2.16,2.16,0,0,0-2,.9,7.5,7.5,0,0,0-.51,3.36v14.63h-4.26V386.52a15.87,15.87,0,0,0-.11-2,3.9,3.9,0,0,0-.4-1.31,1.74,1.74,0,0,0-.73-.72,2.51,2.51,0,0,0-1.12-.23,2.18,2.18,0,0,0-2,1,6.58,6.58,0,0,0-.6,3.29v14.63h-4.1Z"/><path class="cls-9" d="M907.38,369.46a2.66,2.66,0,0,1,1.93.81,2.71,2.71,0,0,1,.82,2,2.78,2.78,0,0,1-2.8,2.79,2.69,2.69,0,0,1-2-.81,2.72,2.72,0,0,1-.8-2,2.64,2.64,0,0,1,.82-1.94A2.86,2.86,0,0,1,907.38,369.46Zm-1.94,9.45h4.13v22.24h-4.13Z"/><path class="cls-9" d="M914.68,372.68h4.1v6.23H921v3.27h-2.24v19h-4.1v-19h-2.26v-3.27h2.26Z"/><path class="cls-9" d="M924.46,372.68h4.1v6.23h2.23v3.27h-2.23v19h-4.1v-19H922.2v-3.27h2.26Z"/><path class="cls-9" d="M942.29,393.65h3.82q-.45,7.85-6.44,7.84a6.46,6.46,0,0,1-3.06-.67,5.3,5.3,0,0,1-2.12-2.06,10.71,10.71,0,0,1-1.24-3.54,29.08,29.08,0,0,1-.39-5.12c0-3.92.54-6.83,1.64-8.72a5.47,5.47,0,0,1,5.08-2.83q6.69,0,6.68,11.77v.51h-9.39q0,7.14,2.84,7.14Q942.29,398,942.29,393.65Zm-.22-5.78a15,15,0,0,0-.79-4.6,1.88,1.88,0,0,0-1.81-1.22,1.85,1.85,0,0,0-1.8,1.22,15.2,15.2,0,0,0-.8,4.6Z"/><path class="cls-9" d="M962.61,364.64v36.51h-4.1v-2.86a7.13,7.13,0,0,1-1.76,2.51,3.7,3.7,0,0,1-2.34.69,4.24,4.24,0,0,1-4-2.82q-1.29-2.84-1.29-8.89a33.58,33.58,0,0,1,.32-5,12.33,12.33,0,0,1,1-3.5,4.72,4.72,0,0,1,1.68-2,4.46,4.46,0,0,1,2.45-.65,3.69,3.69,0,0,1,2.24.64,4.68,4.68,0,0,1,.88.86,8.8,8.8,0,0,1,.88,1.37V364.64Zm-9.28,25.29a22,22,0,0,0,.58,6.13A2.18,2.18,0,0,0,956,397.8c.91,0,1.58-.61,2-1.81a28.51,28.51,0,0,0,0-11.92c-.41-1.21-1.08-1.81-2-1.81a2.2,2.2,0,0,0-2.09,1.72A19.51,19.51,0,0,0,953.33,389.93Z"/><path class="cls-9" d="M463.42,830.6v36.5h-4.11v-2.86a7,7,0,0,1-1.76,2.52,3.76,3.76,0,0,1-2.34.68,4.25,4.25,0,0,1-4-2.82q-1.29-2.83-1.29-8.89a34.8,34.8,0,0,1,.32-5,12.75,12.75,0,0,1,1-3.51,4.8,4.8,0,0,1,1.69-2,4.52,4.52,0,0,1,2.45-.65,3.68,3.68,0,0,1,2.23.64,4.4,4.4,0,0,1,.88.86,7.85,7.85,0,0,1,.88,1.38V830.6Zm-9.28,25.29a21.84,21.84,0,0,0,.58,6.12,2.17,2.17,0,0,0,2.1,1.74c.92,0,1.58-.6,2-1.81a29,29,0,0,0,0-11.92c-.42-1.2-1.08-1.8-2-1.8a2.18,2.18,0,0,0-2.08,1.71A19.58,19.58,0,0,0,454.14,855.89Z"/><path class="cls-9" d="M509.69,850.77q0,8.94-1.71,12.89a6.29,6.29,0,0,1-11.58,0q-1.71-3.74-1.7-13.13t1.7-13.12a6.27,6.27,0,0,1,11.36-.48Q509.7,840.51,509.69,850.77Zm-4.55,0a55.76,55.76,0,0,0-.64-10.4c-.43-1.9-1.22-2.85-2.35-2.85s-1.92.94-2.36,2.83a81.84,81.84,0,0,0,0,20.43c.44,1.89,1.23,2.84,2.36,2.84s1.89-.94,2.32-2.81A48.88,48.88,0,0,0,505.14,850.77Z"/><path class="cls-9" d="M515.93,862.12a2.44,2.44,0,0,1,1.82.79,2.66,2.66,0,0,1,0,3.74,2.68,2.68,0,0,1-1.87.75,2.75,2.75,0,0,1-1-.2,2.92,2.92,0,0,1-.85-.56,2.71,2.71,0,0,1-.57-.84,2.75,2.75,0,0,1-.2-1,2.56,2.56,0,0,1,.77-1.87A2.66,2.66,0,0,1,515.93,862.12Z"/><path class="cls-9" d="M527.08,842.82h-4.26v-.88a16.75,16.75,0,0,1,.38-3.8,6.67,6.67,0,0,1,1.18-2.62,4.79,4.79,0,0,1,2-1.52,8.33,8.33,0,0,1,3-.48q3.65,0,5.33,2.06c1.11,1.38,1.67,3.56,1.67,6.56a13.44,13.44,0,0,1-.77,5.32,5,5,0,0,1-2.9,2.52,5.37,5.37,0,0,1,3.2,2.47,11.84,11.84,0,0,1,.88,5.3q0,5-1.89,7.37t-5.89,2.37q-6.82,0-6.83-7.85v-.58a1.7,1.7,0,0,1,0-.3h4.19c0,.25,0,.46,0,.64s0,.32,0,.44a4.53,4.53,0,0,0,.74,2.71,2.38,2.38,0,0,0,2,1,2.91,2.91,0,0,0,1.43-.34,2.55,2.55,0,0,0,1-1.07,6.28,6.28,0,0,0,.54-1.93,19.37,19.37,0,0,0,.17-2.85,7.91,7.91,0,0,0-.91-4.36,3.42,3.42,0,0,0-3-1.34,3.08,3.08,0,0,0-.51,0l-.65.07v-3.87h.62c1.74,0,2.91-.37,3.53-1.11s.92-2.16.92-4.24q0-5.14-2.6-5.15t-2.58,4.4Z"/><path class="cls-9" d="M545.12,844.71h-4.38l0-1.31q0-5.43,1.63-7.65c1.1-1.48,2.95-2.23,5.54-2.23q7.33,0,7.33,8.12,0,5.48-5.48,15.79l-2.64,5s-.06.12-.13.26l-.3.63h8.2v3.82H540.29c.24-.54.75-1.63,1.52-3.24s1.83-3.81,3.16-6.56q1.69-3.6,2.84-6.12c.76-1.68,1.33-3,1.72-4.12a17,17,0,0,0,1.16-5.57c0-2.75-1-4.12-2.86-4.12s-2.75,1.7-2.75,5.11l0,1.89Z"/><path class="cls-9" d="M566.22,867.1h-4.77l3.2-6.45c.57-1.17,1.14-2.38,1.71-3.62s1.12-2.53,1.66-3.87a5.43,5.43,0,0,1-3.41,1.33,4.68,4.68,0,0,1-4.34-2.38q-1.39-2.37-1.4-7.38,0-6,1.64-8.61c1.08-1.73,2.9-2.6,5.43-2.6s4.4.87,5.5,2.62,1.66,4.66,1.66,8.72a31.85,31.85,0,0,1-1,8.34,37.89,37.89,0,0,1-1.41,4.22c-.62,1.55-1.39,3.3-2.3,5.23l-1.74,3.63Zm2.51-23c0-4.36-.93-6.55-2.81-6.55s-2.79,2.16-2.79,6.47a13.4,13.4,0,0,0,.65,4.92,2.21,2.21,0,0,0,2.14,1.52,2.23,2.23,0,0,0,2.15-1.51A13,13,0,0,0,568.73,844.15Z"/><path class="cls-9" d="M577.89,838.63H582v6.23h2.23v3.27H582v19h-4.1v-19h-2.26v-3.27h2.26Z"/><path class="cls-9" d="M189.56,757.72h4.1V764h2.24v3.26h-2.24v19h-4.1v-19H187.3V764h2.26Z"/><path class="cls-9" d="M758.26,611v36.5h-4.11v-2.86a7.16,7.16,0,0,1-1.76,2.52,3.7,3.7,0,0,1-2.34.69,4.25,4.25,0,0,1-4-2.83q-1.29-2.82-1.29-8.88a35,35,0,0,1,.32-5,12.57,12.57,0,0,1,1-3.5,4.68,4.68,0,0,1,1.69-2,4.42,4.42,0,0,1,2.45-.66,3.68,3.68,0,0,1,2.23.65,4.32,4.32,0,0,1,.88.85,8.67,8.67,0,0,1,.88,1.38V611ZM749,636.28a22.24,22.24,0,0,0,.58,6.12,2.19,2.19,0,0,0,2.11,1.74c.92,0,1.58-.6,2-1.8a29,29,0,0,0,0-11.93c-.42-1.2-1.08-1.8-2-1.8a2.18,2.18,0,0,0-2.08,1.72A19.1,19.1,0,0,0,749,636.28Z"/><path class="cls-9" d="M893.27,21.9h6.06q7.11,0,7.11,8.83a10.41,10.41,0,0,1-.93,5,5.75,5.75,0,0,1-3.26,2.47A7.19,7.19,0,0,1,905.92,41a9.72,9.72,0,0,1,1,5q0,9.12-7.82,9.13h-5.84Zm4.21,14.61c1.73,0,2.94-.41,3.61-1.21s1-2.32,1-4.44q0-5.38-3.87-5.38h-.54a.45.45,0,0,0-.21,0Zm0,14.73c1.83,0,3.1-.39,3.8-1.18s1.05-2.21,1.05-4.27-.36-3.61-1.09-4.45-2-1.29-3.76-1.29Z"/><path class="cls-9" d="M919.74,47.57h3.82q-.45,7.84-6.44,7.84a6.65,6.65,0,0,1-3.07-.66,5.43,5.43,0,0,1-2.11-2.07,10.71,10.71,0,0,1-1.24-3.54,29,29,0,0,1-.39-5.11c0-3.93.54-6.84,1.64-8.73A5.46,5.46,0,0,1,917,32.47q6.68,0,6.68,11.77v.52h-9.39q0,7.13,2.84,7.13Q919.74,51.89,919.74,47.57Zm-.22-5.78a15.3,15.3,0,0,0-.79-4.6A1.89,1.89,0,0,0,916.92,36a1.85,1.85,0,0,0-1.8,1.22,15.2,15.2,0,0,0-.8,4.6Z"/><path class="cls-9" d="M940.06,32.83V55.07H936V52.21a7.13,7.13,0,0,1-1.76,2.51,3.68,3.68,0,0,1-2.32.69,4.24,4.24,0,0,1-4.06-2.83q-1.29-2.84-1.29-8.9,0-5.77,1.29-8.5a4.24,4.24,0,0,1,4.06-2.71q2.54,0,4.08,2.88V32.83Zm-9.28,11a21.88,21.88,0,0,0,.58,6.13,2.18,2.18,0,0,0,2.11,1.74c.91,0,1.58-.6,2-1.81a20.67,20.67,0,0,0,.63-5.95,20.78,20.78,0,0,0-.63-6c-.41-1.2-1.08-1.81-2-1.81a2.2,2.2,0,0,0-2.09,1.72A19.55,19.55,0,0,0,930.78,43.85Z"/><path class="cls-9" d="M944.72,32.83h4.11v2.75q1.7-3.11,4.51-3.11a4.14,4.14,0,0,1,4.17,3.11,5.06,5.06,0,0,1,4.64-3.11,4.84,4.84,0,0,1,3.57,1.23A4.93,4.93,0,0,1,967,37.34V55.07h-4.13V40.44a8,8,0,0,0-.47-3.38,1.8,1.8,0,0,0-1.76-.88,2.14,2.14,0,0,0-2,.91,7.42,7.42,0,0,0-.51,3.35V55.07h-4.26V40.44a14,14,0,0,0-.12-2,4,4,0,0,0-.39-1.31,1.74,1.74,0,0,0-.73-.72,2.54,2.54,0,0,0-1.12-.23,2.2,2.2,0,0,0-2,1,6.58,6.58,0,0,0-.6,3.29V55.07h-4.11Z"/><path class="cls-9" d="M980.19,33.28v3.85A5.17,5.17,0,0,0,977,36a2.91,2.91,0,0,0-1,.19,2.69,2.69,0,0,0-.82.53,2.43,2.43,0,0,0-.76,1.77c0,1.06,1,2.32,2.87,3.79A21.44,21.44,0,0,1,979.23,44a7.87,7.87,0,0,1,1.18,1.46,6.37,6.37,0,0,1,.84,3.42,6.61,6.61,0,0,1-1.74,4.79,6.12,6.12,0,0,1-4.62,1.78,7.21,7.21,0,0,1-3.61-1v-4a5.73,5.73,0,0,0,3.37,1.34c1.88,0,2.82-.93,2.82-2.77a3.12,3.12,0,0,0-.52-1.79,5.61,5.61,0,0,0-.75-.85c-.35-.32-.77-.68-1.27-1.08a16.63,16.63,0,0,1-3.52-3.4,6.22,6.22,0,0,1-.91-3.41A6.13,6.13,0,0,1,972.16,34a5.86,5.86,0,0,1,4.36-1.69A7.65,7.65,0,0,1,980.19,33.28Z"/><path class="cls-9" d="M984.53,64.18V32.83h4.11v2.88a6.93,6.93,0,0,1,1.76-2.53,3.67,3.67,0,0,1,2.36-.71,4.22,4.22,0,0,1,4,2.84q1.28,2.85,1.28,8.91c0,4-.44,6.8-1.31,8.53a4.32,4.32,0,0,1-4.15,2.66,3.83,3.83,0,0,1-2.25-.62,3.88,3.88,0,0,1-.86-.86,9,9,0,0,1-.86-1.35v11.6Zm9.29-20.11a20.58,20.58,0,0,0-.61-6.15,2.14,2.14,0,0,0-2.08-1.74c-1,0-1.62.61-2,1.81a20.16,20.16,0,0,0-.6,6,20.07,20.07,0,0,0,.6,6c.42,1.19,1.09,1.79,2,1.79A2.19,2.19,0,0,0,993.21,50,19.35,19.35,0,0,0,993.82,44.07Z"/><path class="cls-9" d="M1001.89,18.57H1006v36.5h-4.11Z"/><path class="cls-9" d="M1012.59,23.38a2.78,2.78,0,0,1,2.75,2.77,2.78,2.78,0,1,1-5.56,0,2.63,2.63,0,0,1,.81-1.93A2.86,2.86,0,0,1,1012.59,23.38Zm-1.93,9.45h4.12V55.07h-4.12Z"/><path class="cls-9" d="M1019.9,26.6h4.1v6.23h2.24V36.1H1024v19h-4.1v-19h-2.26V32.83h2.26Z"/><path class="cls-9" d="M1029.67,26.6h4.11v6.23H1036V36.1h-2.23v19h-4.11v-19h-2.25V32.83h2.25Z"/><path class="cls-9" d="M1047.5,47.57h3.83q-.45,7.84-6.45,7.84a6.58,6.58,0,0,1-3.06-.66,5.37,5.37,0,0,1-2.11-2.07,10.71,10.71,0,0,1-1.24-3.54,29,29,0,0,1-.4-5.11q0-5.89,1.65-8.73a5.46,5.46,0,0,1,5.08-2.83q6.67,0,6.68,11.77v.52h-9.39q0,7.13,2.84,7.13C1046.65,51.89,1047.5,50.45,1047.5,47.57Zm-.21-5.78a15.3,15.3,0,0,0-.79-4.6,1.89,1.89,0,0,0-1.81-1.22,1.84,1.84,0,0,0-1.8,1.22,14.88,14.88,0,0,0-.8,4.6Z"/><path class="cls-9" d="M1055.13,32.83h4.11V35.6a7.92,7.92,0,0,1,2.08-2.47,5.38,5.38,0,0,1,2.73-.81v4.29a5.46,5.46,0,0,0-.73-.06,3.89,3.89,0,0,0-3.16,1.14,6.23,6.23,0,0,0-.92,3.91V55.07h-4.11Z"/><path class="cls-9" d="M906.29,72.43v4a6.92,6.92,0,0,0-2.88-.84,4.65,4.65,0,0,0-2.73.79,5.67,5.67,0,0,0-1.88,2.41A15.27,15.27,0,0,0,897.71,83a42.21,42.21,0,0,0-.36,5.92q0,12.28,6.3,12.29a6.71,6.71,0,0,0,2.64-.69v4.1a7.2,7.2,0,0,1-3.61.91q-10.08,0-10.08-16.46,0-8.89,2.46-13.23a8.08,8.08,0,0,1,7.53-4.34A7.68,7.68,0,0,1,906.29,72.43Z"/><path class="cls-9" d="M922.94,94.13q0,11.28-7,11.28T909,94q0-11.49,7-11.49a6.79,6.79,0,0,1,3.13.68,5.49,5.49,0,0,1,2.18,2.13,11.25,11.25,0,0,1,1.28,3.63A28.11,28.11,0,0,1,922.94,94.13Zm-4.26-.1a21.66,21.66,0,0,0-.58-6.11A2.12,2.12,0,0,0,916,86.18,2.19,2.19,0,0,0,914,87.9a21.13,21.13,0,0,0-.58,6,20.79,20.79,0,0,0,.58,6,2.18,2.18,0,0,0,2.08,1.72,2.1,2.1,0,0,0,2-1.7A19.08,19.08,0,0,0,918.68,94Z"/><path class="cls-9" d="M939.46,82.83v22.24h-4.1v-2.86a7,7,0,0,1-1.77,2.51,3.64,3.64,0,0,1-2.32.69,4.26,4.26,0,0,1-4.06-2.83q-1.29-2.83-1.29-8.9,0-5.78,1.29-8.5a4.26,4.26,0,0,1,4.06-2.71c1.69,0,3.06,1,4.09,2.88V82.83Zm-9.28,11a21.88,21.88,0,0,0,.58,6.13,2.17,2.17,0,0,0,2.1,1.74c.92,0,1.59-.6,2-1.81a20.67,20.67,0,0,0,.63-6,20.78,20.78,0,0,0-.63-6c-.41-1.2-1.08-1.81-2-1.81a2.2,2.2,0,0,0-2.08,1.72A19.55,19.55,0,0,0,930.18,93.85Z"/><path class="cls-9" d="M944.62,76.6h4.1v6.23H951V86.1h-2.23v19h-4.1v-19h-2.26V82.83h2.26Z"/><path class="cls-9" d="M955.83,73.38a2.6,2.6,0,0,1,1.93.82,2.63,2.63,0,0,1,.82,2,2.78,2.78,0,1,1-5.56,0,2.63,2.63,0,0,1,.81-1.93A2.86,2.86,0,0,1,955.83,73.38Zm-1.93,9.45H958v22.24H953.9Z"/><path class="cls-9" d="M962.64,82.83h4.11v2.56a5.2,5.2,0,0,1,4.55-2.92,4.08,4.08,0,0,1,3.87,2.12,11.29,11.29,0,0,1,.64,4.67v15.81h-4.1l0-14.87a6.89,6.89,0,0,0-.54-3.2,2,2,0,0,0-1.85-1,2.65,2.65,0,0,0-1.19.25,1.88,1.88,0,0,0-.78.8,4.3,4.3,0,0,0-.45,1.43,14.67,14.67,0,0,0-.13,2.17v14.37h-4.11Z"/><path class="cls-9" d="M989.07,82.83h4.12v23q0,4.13-.81,5.71-1.51,2.92-6,2.92a6.32,6.32,0,0,1-4.68-1.69,6.24,6.24,0,0,1-1.72-4.62l0-.69h4q0,3.54,2.65,3.54a2.05,2.05,0,0,0,1.95-.9,7.18,7.18,0,0,0,.54-3.41v-4.28c-.88,2-2.22,3-4,3a4.32,4.32,0,0,1-4.11-2.71q-1.34-2.7-1.33-8.46c0-4.07.43-7.07,1.27-9A4.25,4.25,0,0,1,985,82.47a3.56,3.56,0,0,1,2.23.66,7.89,7.89,0,0,1,1.81,2.37Zm.06,11.32q0-8-2.75-8c-.87,0-1.51.6-1.91,1.8a19.72,19.72,0,0,0-.6,5.74,22.48,22.48,0,0,0,.62,6.17c.43,1.22,1.15,1.83,2.15,1.83a2,2,0,0,0,2-1.64A21,21,0,0,0,989.13,94.15Z"/><path class="cls-9" d="M476.21,851.18a10.85,10.85,0,0,1,4.2,1.54,12,12,0,0,0,3.77,1.54c1.29,0,2.47-1.22,3.56-3.66l1.5,2.07q-2.16,4.89-5.11,4.89-1.1,0-4.88-1.94a8.34,8.34,0,0,0-3-1.1,2.84,2.84,0,0,0-2.24,1.32,14.49,14.49,0,0,0-1.41,2.64l-1.5-2.11C472.62,852.91,474.33,851.18,476.21,851.18Z"/><line class="cls-8" x1="471.79" y1="844.48" x2="488.45" y2="844.48"/></g></g></svg>